# xmcd
# 
# Track frame offsets:
#     150
#     3915
#     10765
#     12602
#     20172
#     30357
#     40480
#     49235
#     61142
#     64852
#     72415
#     75830
#     90045
#     97252
#     105102
#     111597
#     120285
#     147332
#     163140
#     171685
#     188460
#     197665
#     206427
#     215600
#     231377
#     244287
#     259340
#     276595
#     281222
# 
# Disc length: 3916
# 
# Revision: 3
# Processed by: cddbd v1.5.2PL0 Copyright (c) Steve Scherf et al.
# Submitted via: fre:ac v1.0.31
# 
DISCID=a50f4a1d
DTITLE=サントラ - GODZILLA THE BEST 1954-1998
DYEAR=1998
DGENRE=
TTITLE0=足音、鳴き声
TTITLE1=メインタイトル
TTITLE2=ヘリコプター、“It’s GODZILLA”
TTITLE3=ゴジラ復活す
TTITLE4=ふみ子救出作戦
TTITLE5=キングコング輸送作戦
TTITLE6=聖なる泉
TTITLE7=モスラの旅立ち
TTITLE8=黒部谷
TTITLE9=キングギドラ誕生
TTITLE10=自衛隊vsゴジラ、放射能噴射
TTITLE11=怪獣大戦争マーチ
TTITLE12=ゴジラとミニラ
TTITLE13=カマキラス
TTITLE14=タイトル・クレジット
TTITLE15=ゴジラ迎撃せよ
TTITLE16=スーパーX2
TTITLE17=スペースゴジラ・テーマ
TTITLE18=オープニング
TTITLE19=キングギドラ福岡襲撃
TTITLE20=モスラ赤坂へ
TTITLE21=メーサーマーチ
TTITLE22=エンディング(聖なる泉)
TTITLE23=メカゴジラ出撃準備
TTITLE24=Gフォースマーチ
TTITLE25=ゴジラのテーマ
TTITLE26=レクイエム
TTITLE27=足音、鳴き声。立ち去るゴジラ
TTITLE28=OPENING TITLE
EXTD=
EXTT0=
EXTT1=
EXTT2=
EXTT3=
EXTT4=
EXTT5=
EXTT6=
EXTT7=
EXTT8=
EXTT9=
EXTT10=
EXTT11=
EXTT12=
EXTT13=
EXTT14=
EXTT15=
EXTT16=
EXTT17=
EXTT18=
EXTT19=
EXTT20=
EXTT21=
EXTT22=
EXTT23=
EXTT24=
EXTT25=
EXTT26=
EXTT27=
EXTT28=
PLAYORDER=
